<?xml version="1.0" encoding="UTF-8"?>
<svg id="Capa_2" data-name="Capa 2" xmlns="http://www.w3.org/2000/svg" viewBox="0 0 200 200">
  <defs>
    <style>
      .cls-1 {
        fill: #f2b544;
      }

      .cls-1, .cls-2 {
        stroke-width: 0px;
      }

      .cls-2 {
        fill: #224459;
      }
    </style>
  </defs>
  <g id="Capa_1-2" data-name="Capa 1">
    <g>
      <path class="cls-2" d="m118.55,87.4c-16.3-16.79-43.13-17.19-59.93-.88s-17.19,43.13-.88,59.93,43.13,17.19,59.93.88c16.79-16.3,17.19-43.13.88-59.93Zm-12.37,48.09c-10.26,9.96-26.65,9.72-36.6-.54s-9.72-26.65.54-36.6,26.65-9.72,36.6.54c9.96,10.26,9.72,26.65-.54,36.6Z"/>
      <path class="cls-2" d="m0,15v170c0,8.28,6.72,15,15,15h170c8.28,0,15-6.72,15-15V15c0-8.28-6.72-15-15-15H15C6.72,0,0,6.72,0,15Zm155,155H45c-8.28,0-15-6.72-15-15V45c0-8.28,6.72-15,15-15h110c8.28,0,15,6.72,15,15v110c0,8.28-6.72,15-15,15Z"/>
      <polygon class="cls-1" points="117.86 88.06 114.31 63.27 136.79 52.23 154.24 70.2 142.54 92.34 117.86 88.06"/>
    </g>
  </g>
</svg>