<?xml version="1.0" encoding="UTF-8"?>
<svg id="Capa_2" data-name="Capa 2" xmlns="http://www.w3.org/2000/svg" viewBox="0 0 200 200">
  <defs>
    <style>
      .cls-1 {
        fill: #f2b544;
      }

      .cls-1, .cls-2 {
        stroke-width: 0px;
      }

      .cls-2 {
        fill: #224459;
      }
    </style>
  </defs>
  <g id="Capa_1-2" data-name="Capa 1">
    <g>
      <rect class="cls-2" x="4.19" y="80.97" width="94.25" height="94.25"/>
      <polygon class="cls-2" points="104.44 128.09 150.19 80.97 150.19 175.22 104.44 128.09"/>
      <path class="cls-2" d="m0,15v170c0,8.28,6.72,15,15,15h170c8.28,0,15-6.72,15-15V15c0-8.28-6.72-15-15-15H15C6.72,0,0,6.72,0,15Zm155,155H45c-8.28,0-15-6.72-15-15V45c0-8.28,6.72-15,15-15h110c8.28,0,15,6.72,15,15v110c0,8.28-6.72,15-15,15Z"/>
      <g>
        <rect class="cls-1" x="122.98" y="26.02" width="75.67" height="21.44" transform="translate(21.12 124.48) rotate(-45)"/>
        <path class="cls-1" d="m122.55,79.13l14.05-3-15.16-15.16-3,14.05c-.53,2.46,1.66,4.64,4.12,4.12Z"/>
      </g>
    </g>
  </g>
</svg>