<?xml version="1.0" encoding="UTF-8"?>
<svg id="Capa_2" data-name="Capa 2" xmlns="http://www.w3.org/2000/svg" xmlns:xlink="http://www.w3.org/1999/xlink" viewBox="0 0 188.94 188.94">
  <defs>
    <style>
      .cls-1 {
        fill: none;
      }

      .cls-1, .cls-2, .cls-3 {
        stroke-width: 0px;
      }

      .cls-2 {
        fill: #f2b544;
      }

      .cls-4 {
        clip-path: url(#clippath);
      }

      .cls-3 {
        fill: #224459;
      }
    </style>
    <clipPath id="clippath">
      <circle class="cls-1" cx="94.47" cy="94.47" r="94.47"/>
    </clipPath>
  </defs>
  <g id="Capa_1-2" data-name="Capa 1">
    <g>
      <circle class="cls-3" cx="94.47" cy="94.47" r="94.47"/>
      <g class="cls-4">
        <path class="cls-2" d="m182.04-1.64c-2.79-21.59-21.24-38.28-43.59-38.28-24.29,0-43.97,19.69-43.97,43.97,0,8.53,2.43,16.48,6.64,23.22-4.2,6.74-6.64,14.69-6.64,23.22,0,24.29,19.69,43.97,43.97,43.97,10.48,0,20.1-3.67,27.65-9.79,3.4.84,6.95,1.3,10.6,1.3,24.29,0,43.97-19.69,43.97-43.97,0-22.48-16.87-41-38.64-43.64Z"/>
        <path class="cls-2" d="m55.89,103.95c0-.11,0-.22,0-.33,0-24.29-19.69-43.97-43.97-43.97s-43.97,19.69-43.97,43.97c0,1.97.14,3.9.39,5.8-17.59,5.75-30.3,22.28-30.3,41.79,0,24.29,19.69,43.97,43.97,43.97,12.9,0,24.5-5.55,32.55-14.4,7.19,5.13,15.98,8.15,25.49,8.15,24.29,0,43.97-19.69,43.97-43.97,0-18.7-11.68-34.66-28.13-41.02Z"/>
      </g>
    </g>
  </g>
</svg>