<?xml version="1.0" encoding="UTF-8"?>
<svg id="Capa_2" data-name="Capa 2" xmlns="http://www.w3.org/2000/svg" viewBox="0 0 250.66 161.8">
  <defs>
    <style>
      .cls-1 {
        fill: #f2b544;
      }

      .cls-1, .cls-2 {
        stroke-width: 0px;
      }

      .cls-2 {
        fill: #224459;
      }
    </style>
  </defs>
  <g id="Capa_1-2" data-name="Capa 1">
    <g>
      <rect class="cls-2" width="161.8" height="161.8" rx="15" ry="15"/>
      <polygon class="cls-2" points="172.11 80.9 250.66 0 250.66 161.8 172.11 80.9"/>
      <path class="cls-1" d="m130.12,105.97V27.38H38.55v75.7c-4.53,1.13-9.3,3.82-13.39,7.91-8.84,8.84-11.17,20.84-5.21,26.81,5.96,5.96,17.97,3.63,26.81-5.21,8.84-8.84,11.17-20.84,5.21-26.81-.67-.67-1.41-1.22-2.22-1.68v-52.78h70.35v51.19c-5.51.34-11.79,3.29-16.98,8.48-8.84,8.84-11.17,20.84-5.21,26.81,5.96,5.96,17.97,3.63,26.81-5.21,8.75-8.75,11.12-20.58,5.39-26.61Z"/>
    </g>
  </g>
</svg>