<?xml version="1.0" encoding="UTF-8"?>
<svg id="Capa_2" data-name="Capa 2" xmlns="http://www.w3.org/2000/svg" viewBox="0 0 200 200">
  <defs>
    <style>
      .cls-1 {
        fill: #f2b544;
      }

      .cls-1, .cls-2 {
        stroke-width: 0px;
      }

      .cls-2 {
        fill: #224459;
      }
    </style>
  </defs>
  <g id="Capa_1-2" data-name="Capa 1">
    <g>
      <circle class="cls-1" cx="100" cy="84.11" r="21.65"/>
      <path class="cls-2" d="m130,171.57h-60v-30c0-16.57,13.43-30,30-30h0c16.57,0,30,13.43,30,30v30Z"/>
      <path class="cls-2" d="m0,15v170c0,8.28,6.72,15,15,15h170c8.28,0,15-6.72,15-15V15c0-8.28-6.72-15-15-15H15C6.72,0,0,6.72,0,15Zm155,155H45c-8.28,0-15-6.72-15-15V45c0-8.28,6.72-15,15-15h110c8.28,0,15,6.72,15,15v110c0,8.28-6.72,15-15,15Z"/>
    </g>
  </g>
</svg>