<?xml version="1.0" encoding="utf-8"?>
<!-- Generator: Adobe Illustrator 28.0.0, SVG Export Plug-In . SVG Version: 6.00 Build 0)  -->
<svg version="1.2" baseProfile="tiny"
	 id="Layer_1" xmlns:sodipodi="http://sodipodi.sourceforge.net/DTD/sodipodi-0.dtd" xmlns:dc="http://purl.org/dc/elements/1.1/" xmlns:cc="http://creativecommons.org/ns#" xmlns:inkscape="http://www.inkscape.org/namespaces/inkscape" xmlns:svg="http://www.w3.org/2000/svg" xmlns:ns="http://ns.adobe.com/SaveForWeb/1.0/" xmlns:rdf="http://www.w3.org/1999/02/22-rdf-syntax-ns#"
	 xmlns="http://www.w3.org/2000/svg" xmlns:xlink="http://www.w3.org/1999/xlink" x="0px" y="0px" viewBox="0 0 320 312.5"
	 overflow="visible" xml:space="preserve">
<sodipodi:namedview  bordercolor="#666666" borderopacity="1" fit-margin-bottom="0" fit-margin-left="0" fit-margin-right="0" fit-margin-top="0" gridtolerance="10" guidetolerance="10" id="namedview1580" inkscape:current-layer="Layer_1" inkscape:cx="210.13804" inkscape:cy="134.0715" inkscape:guide-bbox="true" inkscape:pageopacity="0" inkscape:pageshadow="2" inkscape:window-height="1017" inkscape:window-maximized="1" inkscape:window-width="1920" inkscape:window-x="1912" inkscape:window-y="-8" inkscape:zoom="1.008547" objecttolerance="10" pagecolor="#ffffff" showgrid="true" showguides="true">
	<inkscape:grid  id="grid2369" originx="670" originy="333" type="xygrid"></inkscape:grid>
	<sodipodi:guide  id="guide2373" inkscape:locked="false" orientation="1,0" position="160,203.25003"></sodipodi:guide>
</sodipodi:namedview>
<g id="Layer_2_1_-8" transform="matrix(0.41666667,0,0,0.41666667,55,0)">
	<g id="Surfaces">
		<g id="Video_Audio_Surface">
			<g id="Outline_no_shadow-3">
				<path id="path2194" inkscape:connector-curvature="0" fill="#00005B" d="M39.308,62.407h425.383
					c64.498,0,116.639,52.145,116.639,116.638v408.918c0,64.494-52.141,116.638-116.639,116.638H39.308
					c-64.493,0-116.638-52.144-116.638-116.638V179.045C-77.33,114.552-25.185,62.407,39.308,62.407z"/>
			</g>
		</g>
	</g>
	<g id="Outlined_Mnemonics_Logos">
		<g id="Ae">
			<path id="path2199" inkscape:connector-curvature="0" fill="#9999FF" d="M187.23,446.627H85.139l-20.857,64.764
				c-0.548,2.47-2.741,4.117-5.211,3.845H7.473c-3.021,0-3.844-1.647-3.021-4.94l88.371-253.31c0.823-2.746,1.647-5.216,2.746-8.509
				c1.096-5.762,1.647-11.801,1.647-17.84c-0.271-1.37,0.823-2.741,2.199-3.017c0.271,0,0.543,0,0.823,0h70.256
				c1.919,0,3.293,0.823,3.565,2.194l100.173,281.306c0.823,3.017,0,4.388-2.746,4.388h-57.36c-1.918,0.276-3.84-1.095-4.388-3.017
				L187.23,446.627z M101.06,392.008h69.705c-1.647-5.762-3.841-12.62-6.31-19.758c-2.47-7.409-4.94-15.366-7.41-23.598
				c-2.746-8.512-5.215-16.745-7.96-25.249c-2.741-8.508-5.211-16.469-7.409-24.426c-2.199-7.685-4.117-14.822-6.039-21.409h-0.548
				c-2.47,11.801-5.491,23.603-9.331,35.405c-4.117,13.171-8.232,26.895-12.625,40.618
				C109.565,367.586,105.177,380.482,101.06,392.008L101.06,392.008z"/>
			<path id="path2201" inkscape:connector-curvature="0" fill="#9999FF" d="M436.977,421.378h-87.002
				c1.099,8.504,3.844,17.016,8.509,24.426c4.939,7.409,11.801,13.172,20.038,16.465c10.974,4.664,23.051,7.133,35.124,6.861
				c9.607-0.276,19.215-1.099,28.542-3.021c8.509-1.095,16.741-3.292,24.426-6.31c1.371-1.099,2.194-0.551,2.194,2.194v41.99
				c0,1.099-0.271,2.194-0.548,3.293c-0.547,0.823-1.099,1.375-1.922,1.922c-8.78,3.84-17.836,6.586-27.443,8.232
				c-12.9,2.47-25.797,3.569-38.968,3.293c-20.861,0-38.422-3.293-52.693-9.603c-13.452-5.762-25.249-14.822-34.58-26.077
				c-8.784-10.702-15.095-22.775-18.935-35.947c-3.844-12.9-5.763-26.348-5.763-40.072c0-14.818,2.19-29.366,6.858-43.636
				c4.392-13.72,11.254-26.345,20.586-37.598c9.056-10.978,20.309-19.758,33.206-26.068c12.9-6.314,28.27-8.512,45.831-8.512
				c14.547-0.272,29.089,2.469,42.542,8.512c11.249,4.94,21.128,12.349,28.814,21.952c7.133,9.332,12.9,19.758,16.469,31.288
				c3.565,10.978,5.211,22.228,5.211,33.482c0,6.586-0.272,12.349-0.548,17.565c-0.548,5.215-0.823,9.056-1.099,11.525
				c-0.272,1.922-1.918,3.569-3.841,3.569c-1.646,0-4.663,0.276-9.059,0.548c-4.388,0.552-9.603,0.823-15.914,0.823
				C450.696,422.473,444.11,421.378,436.977,421.378L436.977,421.378z M349.975,381.306h57.907c7.138,0,12.349,0,15.642-0.271
				c2.198-0.276,4.396-0.823,6.314-2.198v-2.742c0-3.568-0.552-6.861-1.647-10.155c-4.94-15.37-19.487-25.8-35.676-25.249
				c-15.098-0.823-29.365,7.138-36.503,20.857C352.72,367.862,350.798,374.449,349.975,381.306z"/>
		</g>
	</g>
</g>
</svg>
