<?xml version="1.0" encoding="utf-8"?>
<!-- Generator: Adobe Illustrator 28.0.0, SVG Export Plug-In . SVG Version: 6.00 Build 0)  -->
<svg version="1.1" id="Capa_1" xmlns="http://www.w3.org/2000/svg" xmlns:xlink="http://www.w3.org/1999/xlink" x="0px" y="0px"
	 viewBox="0 0 240 234" style="enable-background:new 0 0 240 234;" xml:space="preserve">
<style type="text/css">
	.st0{fill:#00005B;}
	.st1{fill:#9999FF;}
</style>
<g transform="matrix(1.000000125 0 0 1.000000125 159.9999625 83)">
	<path class="st0" d="M-117.5-83h155C61-83,80-64,80-40.5v149C80,132,61,151,37.5,151h-155c-23.5,0-42.5-19-42.5-42.5v-149
		C-160-64-141-83-117.5-83z"/>
	<g>
		<path class="st1" d="M-103,81.1V-21.8c0-0.7,0.3-1.1,1-1.1c1.7,0,3.3,0,5.6-0.1c2.4-0.1,4.9-0.1,7.6-0.2s5.6-0.1,8.7-0.2
			s6.1-0.1,9.1-0.1c8.2,0,15,1,20.6,3.1c5,1.7,9.6,4.5,13.4,8.2c3.2,3.2,5.7,7.1,7.3,11.4c1.5,4.2,2.3,8.5,2.3,13
			c0,8.6-2,15.7-6,21.3s-9.6,9.8-16.1,12.2c-6.8,2.5-14.3,3.4-22.5,3.4c-2.4,0-4,0-5-0.1s-2.4-0.1-4.3-0.1V81
			c0.1,0.7-0.4,1.3-1.1,1.4h-19.4C-102.6,82.4-103,82-103,81.1L-103,81.1z M-81.2-3.6V30c1.4,0.1,2.7,0.2,3.9,0.2h5.3
			c3.9,0,7.8-0.6,11.5-1.8c3.2-0.9,6-2.8,8.2-5.3c2.1-2.5,3.1-5.9,3.1-10.3c0.1-3.1-0.7-6.2-2.3-8.9c-1.7-2.6-4.1-4.6-7-5.7
			c-3.7-1.5-7.7-2.1-11.8-2c-2.6,0-4.9,0-6.8,0.1C-79.1-3.8-80.5-3.7-81.2-3.6L-81.2-3.6z"/>
		<path class="st1" d="M-13.4,2.2H4.1c1,0,1.8,0.7,2.1,1.6c0.3,0.8,0.5,1.6,0.6,2.5c0.2,1,0.4,2.1,0.5,3.1c0.1,1.1,0.2,2.3,0.2,3.6
			c3-3.5,6.6-6.4,10.7-8.6c4.6-2.6,9.9-3.9,15.2-3.9c0.7-0.1,1.3,0.4,1.4,1.1v19.9c0,0.8-0.5,1.1-1.6,1.1c-3.6-0.1-7.3,0.2-10.8,1
			c-2.9,0.6-5.7,1.5-8.4,2.7c-1.9,0.9-3.7,2.1-5.1,3.7v51c0,1-0.4,1.4-1.3,1.4h-19.7c-0.8,0.1-1.5-0.4-1.6-1.2V25.4
			c0-2.4,0-4.9-0.1-7.5s-0.1-5.2-0.2-7.8c0-2.3-0.2-4.5-0.4-6.8c-0.1-0.5,0.2-1,0.7-1.1C-13.7,2.1-13.5,2.1-13.4,2.2L-13.4,2.2z"/>
	</g>
</g>
</svg>
